<?xml version="1.0" encoding="UTF-8" standalone="no"?>
<!DOCTYPE svg PUBLIC "-//W3C//DTD SVG 1.1//EN" "http://www.w3.org/Graphics/SVG/1.1/DTD/svg11.dtd">
<svg width="100%" height="100%" viewBox="0 0 827 278" version="1.1" xmlns="http://www.w3.org/2000/svg" xmlns:xlink="http://www.w3.org/1999/xlink" xml:space="preserve" xmlns:serif="http://www.serif.com/" style="fill-rule:evenodd;clip-rule:evenodd;stroke-linejoin:round;stroke-miterlimit:2;">
    <g transform="matrix(1,0,0,1,0,-464.164)">
        <g id="Ñëîé-1" serif:id="Ñëîé 1">
            <g>
                <g>
                    <g transform="matrix(-1,0,0,1,1456.24,170.448)">
                        <rect x="710.635" y="293.716" width="34.971" height="34.971" style="fill:white;"/>
                    </g>
                    <g transform="matrix(-1,0,0,1,1456.24,654.794)">
                        <rect x="710.635" y="51.543" width="34.971" height="34.971" style="fill:white;"/>
                    </g>
                    <g transform="matrix(-1,0,0,1,1617.69,654.794)">
                        <rect x="791.359" y="51.543" width="34.971" height="34.971" style="fill:white;"/>
                    </g>
                    <g transform="matrix(-1,0,0,1,1536.96,170.448)">
                        <rect x="750.997" y="293.716" width="34.971" height="34.971" style="fill:white;"/>
                    </g>
                    <g transform="matrix(-1,0,0,1,1536.96,251.171)">
                        <rect x="750.997" y="253.355" width="34.971" height="34.97" style="fill:white;"/>
                    </g>
                    <g transform="matrix(-1,0,0,1,1536.96,331.896)">
                        <rect x="750.997" y="212.992" width="34.971" height="34.971" style="fill:white;"/>
                    </g>
                    <g transform="matrix(-1,0,0,1,1536.96,412.62)">
                        <rect x="750.997" y="172.63" width="34.971" height="34.971" style="fill:white;"/>
                    </g>
                    <g transform="matrix(-1,0,0,1,1536.96,493.344)">
                        <rect x="750.997" y="132.268" width="34.971" height="34.971" style="fill:white;"/>
                    </g>
                    <g transform="matrix(-1,0,0,1,1536.96,574.068)">
                        <rect x="750.997" y="91.906" width="34.971" height="34.971" style="fill:white;"/>
                    </g>
                    <g transform="matrix(-1,0,0,1,1536.96,654.794)">
                        <rect x="750.997" y="51.543" width="34.971" height="34.971" style="fill:white;"/>
                    </g>
                    <g transform="matrix(1,0,0,1,0,251.171)">
                        <rect x="0" y="253.355" width="34.971" height="34.97" style="fill:white;"/>
                    </g>
                    <g transform="matrix(-1,0,0,1,357.867,251.171)">
                        <rect x="161.448" y="253.355" width="34.971" height="34.97" style="fill:white;"/>
                    </g>
                    <g transform="matrix(-1,0,0,1,357.867,331.896)">
                        <rect x="161.448" y="212.992" width="34.971" height="34.971" style="fill:white;"/>
                    </g>
                    <g transform="matrix(-1,0,0,1,357.867,654.794)">
                        <rect x="161.448" y="51.543" width="34.971" height="34.971" style="fill:white;"/>
                    </g>
                    <g transform="matrix(-1,0,0,1,277.143,412.62)">
                        <rect x="121.086" y="172.63" width="34.971" height="34.971" style="fill:white;"/>
                    </g>
                    <g transform="matrix(-1,0,0,1,277.143,654.794)">
                        <rect x="121.086" y="51.543" width="34.971" height="34.971" style="fill:white;"/>
                    </g>
                    <g transform="matrix(-1,0,0,1,196.417,412.62)">
                        <rect x="80.723" y="172.63" width="34.971" height="34.971" style="fill:white;"/>
                    </g>
                    <g transform="matrix(-1,0,0,1,196.417,654.794)">
                        <rect x="80.723" y="51.543" width="34.971" height="34.971" style="fill:white;"/>
                    </g>
                    <g transform="matrix(-1,0,0,1,196.417,170.448)">
                        <rect x="80.723" y="293.716" width="34.971" height="34.971" style="fill:white;"/>
                    </g>
                    <g transform="matrix(-1,0,0,1,115.695,170.448)">
                        <rect x="40.362" y="293.716" width="34.971" height="34.971" style="fill:white;"/>
                    </g>
                    <g transform="matrix(-1,0,0,1,115.695,493.344)">
                        <rect x="40.362" y="132.268" width="34.971" height="34.971" style="fill:white;"/>
                    </g>
                    <g transform="matrix(-1,0,0,1,115.695,654.794)">
                        <rect x="40.362" y="51.543" width="34.971" height="34.971" style="fill:white;"/>
                    </g>
                    <g transform="matrix(1,0,0,1,0,654.794)">
                        <rect x="0" y="51.543" width="34.971" height="34.971" style="fill:white;"/>
                    </g>
                    <g transform="matrix(1,0,0,1,0,574.069)">
                        <rect x="0" y="91.906" width="34.971" height="34.97" style="fill:white;"/>
                    </g>
                    <g transform="matrix(-1,0,0,1,277.143,170.448)">
                        <rect x="121.086" y="293.716" width="34.971" height="34.971" style="fill:white;"/>
                    </g>
                    <g transform="matrix(-1,0,0,1,989.673,251.171)">
                        <rect x="477.351" y="253.355" width="34.971" height="34.97" style="fill:white;"/>
                    </g>
                    <g transform="matrix(-1,0,0,1,1312.57,251.171)">
                        <rect x="638.8" y="253.355" width="34.971" height="34.97" style="fill:white;"/>
                    </g>
                    <g transform="matrix(-1,0,0,1,1312.57,331.896)">
                        <rect x="638.8" y="212.992" width="34.971" height="34.971" style="fill:white;"/>
                    </g>
                    <g transform="matrix(-1,0,0,1,1312.57,654.794)">
                        <rect x="638.8" y="51.543" width="34.971" height="34.971" style="fill:white;"/>
                    </g>
                    <g transform="matrix(-1,0,0,1,1231.85,412.62)">
                        <rect x="598.437" y="172.63" width="34.971" height="34.971" style="fill:white;"/>
                    </g>
                    <g transform="matrix(-1,0,0,1,1231.85,654.794)">
                        <rect x="598.437" y="51.543" width="34.971" height="34.971" style="fill:white;"/>
                    </g>
                    <g transform="matrix(-1,0,0,1,1151.12,412.62)">
                        <rect x="558.075" y="172.63" width="34.971" height="34.971" style="fill:white;"/>
                    </g>
                    <g transform="matrix(-1,0,0,1,1151.12,654.794)">
                        <rect x="558.075" y="51.543" width="34.971" height="34.971" style="fill:white;"/>
                    </g>
                    <g transform="matrix(-1,0,0,1,1151.12,170.448)">
                        <rect x="558.075" y="293.716" width="34.971" height="34.971" style="fill:white;"/>
                    </g>
                    <g transform="matrix(-1,0,0,1,1070.4,170.448)">
                        <rect x="517.713" y="293.716" width="34.971" height="34.971" style="fill:white;"/>
                    </g>
                    <g transform="matrix(-1,0,0,1,1070.4,493.344)">
                        <rect x="517.713" y="132.268" width="34.971" height="34.971" style="fill:white;"/>
                    </g>
                    <g transform="matrix(-1,0,0,1,1070.4,654.794)">
                        <rect x="517.713" y="51.543" width="34.971" height="34.971" style="fill:white;"/>
                    </g>
                    <g transform="matrix(-1,0,0,1,989.673,654.794)">
                        <rect x="477.351" y="51.543" width="34.971" height="34.971" style="fill:white;"/>
                    </g>
                    <g transform="matrix(-1,0,0,1,989.673,574.068)">
                        <rect x="477.351" y="91.906" width="34.971" height="34.971" style="fill:white;"/>
                    </g>
                    <g transform="matrix(-1,0,0,1,1231.85,170.448)">
                        <rect x="598.437" y="293.716" width="34.971" height="34.971" style="fill:white;"/>
                    </g>
                    <g transform="matrix(-1,0,0,1,835.219,251.171)">
                        <rect x="400.124" y="253.355" width="34.971" height="34.97" style="fill:white;"/>
                    </g>
                    <g transform="matrix(-1,0,0,1,835.219,331.896)">
                        <rect x="400.124" y="212.992" width="34.971" height="34.971" style="fill:white;"/>
                    </g>
                    <g transform="matrix(-1,0,0,1,835.219,412.62)">
                        <rect x="400.124" y="172.63" width="34.971" height="34.971" style="fill:white;"/>
                    </g>
                    <g transform="matrix(-1,0,0,1,835.219,493.344)">
                        <rect x="400.124" y="132.268" width="34.971" height="34.971" style="fill:white;"/>
                    </g>
                    <g transform="matrix(-1,0,0,1,835.219,574.068)">
                        <rect x="400.124" y="91.906" width="34.971" height="34.971" style="fill:white;"/>
                    </g>
                    <g transform="matrix(-1,0,0,1,512.323,251.171)">
                        <rect x="238.676" y="253.355" width="34.971" height="34.97" style="fill:white;"/>
                    </g>
                    <g transform="matrix(-1,0,0,1,512.323,331.896)">
                        <rect x="238.676" y="212.992" width="34.971" height="34.971" style="fill:white;"/>
                    </g>
                    <g transform="matrix(-1,0,0,1,512.323,412.62)">
                        <rect x="238.676" y="172.63" width="34.971" height="34.971" style="fill:white;"/>
                    </g>
                    <g transform="matrix(-1,0,0,1,512.323,493.344)">
                        <rect x="238.676" y="132.268" width="34.971" height="34.971" style="fill:white;"/>
                    </g>
                    <g transform="matrix(-1,0,0,1,512.323,574.068)">
                        <rect x="238.676" y="91.906" width="34.971" height="34.971" style="fill:white;"/>
                    </g>
                    <g transform="matrix(-1,0,0,1,754.495,331.896)">
                        <rect x="359.762" y="212.992" width="34.971" height="34.971" style="fill:white;"/>
                    </g>
                    <g transform="matrix(-1,0,0,1,673.769,412.62)">
                        <rect x="319.399" y="172.63" width="34.971" height="34.971" style="fill:white;"/>
                    </g>
                    <g transform="matrix(-1,0,0,1,593.045,493.344)">
                        <rect x="279.037" y="132.268" width="34.971" height="34.971" style="fill:white;"/>
                    </g>
                    <g transform="matrix(-1,0,0,1,673.769,170.448)">
                        <rect x="319.399" y="293.716" width="34.971" height="34.971" style="fill:white;"/>
                    </g>
                    <g transform="matrix(-1,0,0,1,593.045,170.448)">
                        <rect x="279.037" y="293.716" width="34.971" height="34.971" style="fill:white;"/>
                    </g>
                    <g transform="matrix(-1,0,0,1,754.495,170.448)">
                        <rect x="359.762" y="293.716" width="34.971" height="34.971" style="fill:white;"/>
                    </g>
                    <g transform="matrix(-1,0,0,1,673.769,654.794)">
                        <rect x="319.399" y="51.543" width="34.971" height="34.971" style="fill:white;"/>
                    </g>
                    <g transform="matrix(-1,0,0,1,593.045,654.794)">
                        <rect x="279.037" y="51.543" width="34.971" height="34.971" style="fill:white;"/>
                    </g>
                    <g transform="matrix(-1,0,0,1,754.495,654.794)">
                        <rect x="359.762" y="51.543" width="34.971" height="34.971" style="fill:white;"/>
                    </g>
                    <g transform="matrix(-1,0,0,1,1456.24,170.448)">
                        <rect x="710.635" y="293.716" width="34.971" height="34.971" style="fill:white;"/>
                    </g>
                    <g transform="matrix(-1,0,0,1,1456.24,654.794)">
                        <rect x="710.635" y="51.543" width="34.971" height="34.971" style="fill:white;"/>
                    </g>
                    <g transform="matrix(-1,0,0,1,1617.69,654.794)">
                        <rect x="791.359" y="51.543" width="34.971" height="34.971" style="fill:white;"/>
                    </g>
                    <g transform="matrix(-1,0,0,1,1536.96,170.448)">
                        <rect x="750.997" y="293.716" width="34.971" height="34.971" style="fill:white;"/>
                    </g>
                    <g transform="matrix(-1,0,0,1,1536.96,251.171)">
                        <rect x="750.997" y="253.355" width="34.971" height="34.97" style="fill:white;"/>
                    </g>
                    <g transform="matrix(-1,0,0,1,1536.96,331.896)">
                        <rect x="750.997" y="212.992" width="34.971" height="34.971" style="fill:white;"/>
                    </g>
                    <g transform="matrix(-1,0,0,1,1536.96,412.62)">
                        <rect x="750.997" y="172.63" width="34.971" height="34.971" style="fill:white;"/>
                    </g>
                    <g transform="matrix(-1,0,0,1,1536.96,493.344)">
                        <rect x="750.997" y="132.268" width="34.971" height="34.971" style="fill:white;"/>
                    </g>
                    <g transform="matrix(-1,0,0,1,1536.96,574.068)">
                        <rect x="750.997" y="91.906" width="34.971" height="34.971" style="fill:white;"/>
                    </g>
                    <g transform="matrix(-1,0,0,1,1536.96,654.794)">
                        <rect x="750.997" y="51.543" width="34.971" height="34.971" style="fill:white;"/>
                    </g>
                    <g transform="matrix(1,0,0,1,0,251.171)">
                        <rect x="0" y="253.355" width="34.971" height="34.97" style="fill:white;"/>
                    </g>
                    <g transform="matrix(-1,0,0,1,357.867,251.171)">
                        <rect x="161.448" y="253.355" width="34.971" height="34.97" style="fill:white;"/>
                    </g>
                    <g transform="matrix(-1,0,0,1,357.867,331.896)">
                        <rect x="161.448" y="212.992" width="34.971" height="34.971" style="fill:white;"/>
                    </g>
                    <g transform="matrix(-1,0,0,1,357.867,654.794)">
                        <rect x="161.448" y="51.543" width="34.971" height="34.971" style="fill:white;"/>
                    </g>
                    <g transform="matrix(-1,0,0,1,277.143,412.62)">
                        <rect x="121.086" y="172.63" width="34.971" height="34.971" style="fill:white;"/>
                    </g>
                    <g transform="matrix(-1,0,0,1,277.143,654.794)">
                        <rect x="121.086" y="51.543" width="34.971" height="34.971" style="fill:white;"/>
                    </g>
                    <g transform="matrix(-1,0,0,1,196.417,412.62)">
                        <rect x="80.723" y="172.63" width="34.971" height="34.971" style="fill:white;"/>
                    </g>
                    <g transform="matrix(-1,0,0,1,196.417,654.794)">
                        <rect x="80.723" y="51.543" width="34.971" height="34.971" style="fill:white;"/>
                    </g>
                    <g transform="matrix(-1,0,0,1,196.417,170.448)">
                        <rect x="80.723" y="293.716" width="34.971" height="34.971" style="fill:white;"/>
                    </g>
                    <g transform="matrix(-1,0,0,1,115.695,170.448)">
                        <rect x="40.362" y="293.716" width="34.971" height="34.971" style="fill:white;"/>
                    </g>
                    <g transform="matrix(-1,0,0,1,115.695,493.344)">
                        <rect x="40.362" y="132.268" width="34.971" height="34.971" style="fill:white;"/>
                    </g>
                    <g transform="matrix(-1,0,0,1,115.695,654.794)">
                        <rect x="40.362" y="51.543" width="34.971" height="34.971" style="fill:white;"/>
                    </g>
                    <g transform="matrix(1,0,0,1,0,654.794)">
                        <rect x="0" y="51.543" width="34.971" height="34.971" style="fill:white;"/>
                    </g>
                    <g transform="matrix(1,0,0,1,0,574.069)">
                        <rect x="0" y="91.906" width="34.971" height="34.97" style="fill:white;"/>
                    </g>
                    <g transform="matrix(-1,0,0,1,277.143,170.448)">
                        <rect x="121.086" y="293.716" width="34.971" height="34.971" style="fill:white;"/>
                    </g>
                    <g transform="matrix(-1,0,0,1,989.673,251.171)">
                        <rect x="477.351" y="253.355" width="34.971" height="34.97" style="fill:white;"/>
                    </g>
                    <g transform="matrix(-1,0,0,1,1312.57,251.171)">
                        <rect x="638.8" y="253.355" width="34.971" height="34.97" style="fill:white;"/>
                    </g>
                    <g transform="matrix(-1,0,0,1,1312.57,331.896)">
                        <rect x="638.8" y="212.992" width="34.971" height="34.971" style="fill:white;"/>
                    </g>
                    <g transform="matrix(-1,0,0,1,1312.57,654.794)">
                        <rect x="638.8" y="51.543" width="34.971" height="34.971" style="fill:white;"/>
                    </g>
                    <g transform="matrix(-1,0,0,1,1231.85,412.62)">
                        <rect x="598.437" y="172.63" width="34.971" height="34.971" style="fill:white;"/>
                    </g>
                    <g transform="matrix(-1,0,0,1,1231.85,654.794)">
                        <rect x="598.437" y="51.543" width="34.971" height="34.971" style="fill:white;"/>
                    </g>
                    <g transform="matrix(-1,0,0,1,1151.12,412.62)">
                        <rect x="558.075" y="172.63" width="34.971" height="34.971" style="fill:white;"/>
                    </g>
                    <g transform="matrix(-1,0,0,1,1151.12,654.794)">
                        <rect x="558.075" y="51.543" width="34.971" height="34.971" style="fill:white;"/>
                    </g>
                    <g transform="matrix(-1,0,0,1,1151.12,170.448)">
                        <rect x="558.075" y="293.716" width="34.971" height="34.971" style="fill:white;"/>
                    </g>
                    <g transform="matrix(-1,0,0,1,1070.4,170.448)">
                        <rect x="517.713" y="293.716" width="34.971" height="34.971" style="fill:white;"/>
                    </g>
                    <g transform="matrix(-1,0,0,1,1070.4,493.344)">
                        <rect x="517.713" y="132.268" width="34.971" height="34.971" style="fill:white;"/>
                    </g>
                    <g transform="matrix(-1,0,0,1,1070.4,654.794)">
                        <rect x="517.713" y="51.543" width="34.971" height="34.971" style="fill:white;"/>
                    </g>
                    <g transform="matrix(-1,0,0,1,989.673,654.794)">
                        <rect x="477.351" y="51.543" width="34.971" height="34.971" style="fill:white;"/>
                    </g>
                    <g transform="matrix(-1,0,0,1,989.673,574.068)">
                        <rect x="477.351" y="91.906" width="34.971" height="34.971" style="fill:white;"/>
                    </g>
                    <g transform="matrix(-1,0,0,1,1231.85,170.448)">
                        <rect x="598.437" y="293.716" width="34.971" height="34.971" style="fill:white;"/>
                    </g>
                    <g transform="matrix(-1,0,0,1,835.219,251.171)">
                        <rect x="400.124" y="253.355" width="34.971" height="34.97" style="fill:white;"/>
                    </g>
                    <g transform="matrix(-1,0,0,1,835.219,331.896)">
                        <rect x="400.124" y="212.992" width="34.971" height="34.971" style="fill:white;"/>
                    </g>
                    <g transform="matrix(-1,0,0,1,835.219,412.62)">
                        <rect x="400.124" y="172.63" width="34.971" height="34.971" style="fill:white;"/>
                    </g>
                    <g transform="matrix(-1,0,0,1,835.219,493.344)">
                        <rect x="400.124" y="132.268" width="34.971" height="34.971" style="fill:white;"/>
                    </g>
                    <g transform="matrix(-1,0,0,1,835.219,574.068)">
                        <rect x="400.124" y="91.906" width="34.971" height="34.971" style="fill:white;"/>
                    </g>
                    <g transform="matrix(-1,0,0,1,512.323,251.171)">
                        <rect x="238.676" y="253.355" width="34.971" height="34.97" style="fill:white;"/>
                    </g>
                    <g transform="matrix(-1,0,0,1,512.323,331.896)">
                        <rect x="238.676" y="212.992" width="34.971" height="34.971" style="fill:white;"/>
                    </g>
                    <g transform="matrix(-1,0,0,1,512.323,412.62)">
                        <rect x="238.676" y="172.63" width="34.971" height="34.971" style="fill:white;"/>
                    </g>
                    <g transform="matrix(-1,0,0,1,512.323,493.344)">
                        <rect x="238.676" y="132.268" width="34.971" height="34.971" style="fill:white;"/>
                    </g>
                    <g transform="matrix(-1,0,0,1,512.323,574.068)">
                        <rect x="238.676" y="91.906" width="34.971" height="34.971" style="fill:white;"/>
                    </g>
                    <g transform="matrix(-1,0,0,1,754.495,331.896)">
                        <rect x="359.762" y="212.992" width="34.971" height="34.971" style="fill:white;"/>
                    </g>
                    <g transform="matrix(-1,0,0,1,673.769,412.62)">
                        <rect x="319.399" y="172.63" width="34.971" height="34.971" style="fill:white;"/>
                    </g>
                    <g transform="matrix(-1,0,0,1,593.045,493.344)">
                        <rect x="279.037" y="132.268" width="34.971" height="34.971" style="fill:white;"/>
                    </g>
                    <g transform="matrix(-1,0,0,1,673.769,170.448)">
                        <rect x="319.399" y="293.716" width="34.971" height="34.971" style="fill:white;"/>
                    </g>
                    <g transform="matrix(-1,0,0,1,593.045,170.448)">
                        <rect x="279.037" y="293.716" width="34.971" height="34.971" style="fill:white;"/>
                    </g>
                    <g transform="matrix(-1,0,0,1,754.495,170.448)">
                        <rect x="359.762" y="293.716" width="34.971" height="34.971" style="fill:white;"/>
                    </g>
                    <g transform="matrix(-1,0,0,1,673.769,654.794)">
                        <rect x="319.399" y="51.543" width="34.971" height="34.971" style="fill:white;"/>
                    </g>
                    <g transform="matrix(-1,0,0,1,593.045,654.794)">
                        <rect x="279.037" y="51.543" width="34.971" height="34.971" style="fill:white;"/>
                    </g>
                    <g transform="matrix(-1,0,0,1,754.495,654.794)">
                        <rect x="359.762" y="51.543" width="34.971" height="34.971" style="fill:white;"/>
                    </g>
                </g>
            </g>
        </g>
    </g>
</svg>
