<?xml version="1.0" encoding="UTF-8" standalone="no"?>
<!DOCTYPE svg PUBLIC "-//W3C//DTD SVG 1.1//EN" "http://www.w3.org/Graphics/SVG/1.1/DTD/svg11.dtd">
<svg width="100%" height="100%" viewBox="0 0 913 278" version="1.1" xmlns="http://www.w3.org/2000/svg" xmlns:xlink="http://www.w3.org/1999/xlink" xml:space="preserve" xmlns:serif="http://www.serif.com/" style="fill-rule:evenodd;clip-rule:evenodd;stroke-linejoin:round;stroke-miterlimit:2;">
    <g transform="matrix(1,0,0,1,-3685.86,-464.164)">
        <g id="Camada-2" serif:id="Camada 2">
            <g>
                <g transform="matrix(-1,0,0,1,7406.68,251.171)">
                    <rect x="3685.86" y="253.355" width="34.971" height="34.97" style="fill:rgb(255,149,0);"/>
                </g>
                <g transform="matrix(-1,0,0,1,7729.58,251.171)">
                    <rect x="3847.31" y="253.355" width="34.971" height="34.97" style="fill:rgb(255,149,0);"/>
                </g>
                <g transform="matrix(-1,0,0,1,7729.58,331.896)">
                    <rect x="3847.31" y="212.992" width="34.971" height="34.971" style="fill:rgb(255,149,0);"/>
                </g>
                <g transform="matrix(-1,0,0,1,7729.58,654.794)">
                    <rect x="3847.31" y="51.543" width="34.971" height="34.971" style="fill:rgb(255,149,0);"/>
                </g>
                <g transform="matrix(-1,0,0,1,7648.86,412.62)">
                    <rect x="3806.94" y="172.63" width="34.971" height="34.971" style="fill:rgb(255,149,0);"/>
                </g>
                <g transform="matrix(-1,0,0,1,7648.86,654.794)">
                    <rect x="3806.94" y="51.543" width="34.971" height="34.971" style="fill:rgb(255,149,0);"/>
                </g>
                <g transform="matrix(-1,0,0,1,7568.13,412.62)">
                    <rect x="3766.58" y="172.63" width="34.971" height="34.971" style="fill:rgb(255,149,0);"/>
                </g>
                <g transform="matrix(-1,0,0,1,7568.13,654.794)">
                    <rect x="3766.58" y="51.543" width="34.971" height="34.971" style="fill:rgb(255,149,0);"/>
                </g>
                <g transform="matrix(-1,0,0,1,7568.13,170.448)">
                    <rect x="3766.58" y="293.716" width="34.971" height="34.971" style="fill:rgb(255,149,0);"/>
                </g>
                <g transform="matrix(-1,0,0,1,7487.41,170.448)">
                    <rect x="3726.22" y="293.716" width="34.972" height="34.971" style="fill:rgb(255,149,0);"/>
                </g>
                <g transform="matrix(-1,0,0,1,7487.41,493.344)">
                    <rect x="3726.22" y="132.268" width="34.972" height="34.971" style="fill:rgb(255,149,0);"/>
                </g>
                <g transform="matrix(-1,0,0,1,7487.41,654.794)">
                    <rect x="3726.22" y="51.543" width="34.972" height="34.971" style="fill:rgb(255,149,0);"/>
                </g>
                <g transform="matrix(-1,0,0,1,7406.68,654.794)">
                    <rect x="3685.86" y="51.543" width="34.971" height="34.971" style="fill:rgb(255,149,0);"/>
                </g>
                <g transform="matrix(-1,0,0,1,7406.68,574.068)">
                    <rect x="3685.86" y="91.906" width="34.971" height="34.971" style="fill:rgb(255,149,0);"/>
                </g>
                <g transform="matrix(-1,0,0,1,7648.86,170.448)">
                    <rect x="3806.94" y="293.716" width="34.971" height="34.971" style="fill:rgb(255,149,0);"/>
                </g>
                <g transform="matrix(-1,0,0,1,8361.39,251.171)">
                    <rect x="4163.21" y="253.355" width="34.972" height="34.97" style="fill:rgb(255,149,0);"/>
                </g>
                <g transform="matrix(-1,0,0,1,8684.29,251.171)">
                    <rect x="4324.66" y="253.355" width="34.971" height="34.97" style="fill:rgb(255,149,0);"/>
                </g>
                <g transform="matrix(-1,0,0,1,8684.29,331.896)">
                    <rect x="4324.66" y="212.992" width="34.971" height="34.971" style="fill:rgb(255,149,0);"/>
                </g>
                <g transform="matrix(-1,0,0,1,8684.29,654.794)">
                    <rect x="4324.66" y="51.543" width="34.971" height="34.971" style="fill:rgb(255,149,0);"/>
                </g>
                <g transform="matrix(-1,0,0,1,8603.56,412.62)">
                    <rect x="4284.3" y="172.63" width="34.971" height="34.971" style="fill:rgb(255,149,0);"/>
                </g>
                <g transform="matrix(-1,0,0,1,8603.56,654.794)">
                    <rect x="4284.3" y="51.543" width="34.971" height="34.971" style="fill:rgb(255,149,0);"/>
                </g>
                <g transform="matrix(-1,0,0,1,8522.83,412.62)">
                    <rect x="4243.93" y="172.63" width="34.971" height="34.971" style="fill:rgb(255,149,0);"/>
                </g>
                <g transform="matrix(-1,0,0,1,8522.83,654.794)">
                    <rect x="4243.93" y="51.543" width="34.971" height="34.971" style="fill:rgb(255,149,0);"/>
                </g>
                <g transform="matrix(-1,0,0,1,8522.83,170.448)">
                    <rect x="4243.93" y="293.716" width="34.971" height="34.971" style="fill:rgb(255,149,0);"/>
                </g>
                <g transform="matrix(-1,0,0,1,8442.11,170.448)">
                    <rect x="4203.57" y="293.716" width="34.971" height="34.971" style="fill:rgb(255,149,0);"/>
                </g>
                <g transform="matrix(-1,0,0,1,8442.11,493.344)">
                    <rect x="4203.57" y="132.268" width="34.971" height="34.971" style="fill:rgb(255,149,0);"/>
                </g>
                <g transform="matrix(-1,0,0,1,8442.11,654.794)">
                    <rect x="4203.57" y="51.543" width="34.971" height="34.971" style="fill:rgb(255,149,0);"/>
                </g>
                <g transform="matrix(-1,0,0,1,8361.39,654.794)">
                    <rect x="4163.21" y="51.543" width="34.972" height="34.971" style="fill:rgb(255,149,0);"/>
                </g>
                <g transform="matrix(-1,0,0,1,8361.39,574.068)">
                    <rect x="4163.21" y="91.906" width="34.972" height="34.971" style="fill:rgb(255,149,0);"/>
                </g>
                <g transform="matrix(-1,0,0,1,8603.56,170.448)">
                    <rect x="4284.3" y="293.716" width="34.971" height="34.971" style="fill:rgb(255,149,0);"/>
                </g>
                <g transform="matrix(-1,0,0,1,8838.74,251.171)">
                    <rect x="4401.88" y="253.355" width="34.971" height="34.97" style="fill:rgb(255,149,0);"/>
                </g>
                <g transform="matrix(-1,0,0,1,9161.64,251.171)">
                    <rect x="4563.33" y="253.355" width="34.971" height="34.97" style="fill:rgb(255,149,0);"/>
                </g>
                <g transform="matrix(-1,0,0,1,9161.64,331.896)">
                    <rect x="4563.33" y="212.992" width="34.971" height="34.971" style="fill:rgb(255,149,0);"/>
                </g>
                <g transform="matrix(-1,0,0,1,9161.64,654.794)">
                    <rect x="4563.33" y="51.543" width="34.971" height="34.971" style="fill:rgb(255,149,0);"/>
                </g>
                <g transform="matrix(-1,0,0,1,9080.91,412.62)">
                    <rect x="4522.97" y="172.63" width="34.972" height="34.971" style="fill:rgb(255,149,0);"/>
                </g>
                <g transform="matrix(-1,0,0,1,9080.91,654.794)">
                    <rect x="4522.97" y="51.543" width="34.972" height="34.971" style="fill:rgb(255,149,0);"/>
                </g>
                <g transform="matrix(-1,0,0,1,9000.18,412.62)">
                    <rect x="4482.61" y="172.63" width="34.971" height="34.971" style="fill:rgb(255,149,0);"/>
                </g>
                <g transform="matrix(-1,0,0,1,9000.18,654.794)">
                    <rect x="4482.61" y="51.543" width="34.971" height="34.971" style="fill:rgb(255,149,0);"/>
                </g>
                <g transform="matrix(-1,0,0,1,9000.18,170.448)">
                    <rect x="4482.61" y="293.716" width="34.971" height="34.971" style="fill:rgb(255,149,0);"/>
                </g>
                <g transform="matrix(-1,0,0,1,8919.46,170.448)">
                    <rect x="4442.25" y="293.716" width="34.971" height="34.971" style="fill:rgb(255,149,0);"/>
                </g>
                <g transform="matrix(-1,0,0,1,8919.46,493.344)">
                    <rect x="4442.25" y="132.268" width="34.971" height="34.971" style="fill:rgb(255,149,0);"/>
                </g>
                <g transform="matrix(-1,0,0,1,8919.46,654.794)">
                    <rect x="4442.25" y="51.543" width="34.971" height="34.971" style="fill:rgb(255,149,0);"/>
                </g>
                <g transform="matrix(-1,0,0,1,8838.74,654.794)">
                    <rect x="4401.88" y="51.543" width="34.971" height="34.971" style="fill:rgb(255,149,0);"/>
                </g>
                <g transform="matrix(-1,0,0,1,8838.74,574.068)">
                    <rect x="4401.88" y="91.906" width="34.971" height="34.971" style="fill:rgb(255,149,0);"/>
                </g>
                <g transform="matrix(-1,0,0,1,9080.91,170.448)">
                    <rect x="4522.97" y="293.716" width="34.972" height="34.971" style="fill:rgb(255,149,0);"/>
                </g>
                <g transform="matrix(-1,0,0,1,8206.93,251.171)">
                    <rect x="4085.98" y="253.355" width="34.97" height="34.97" style="fill:rgb(255,149,0);"/>
                </g>
                <g transform="matrix(-1,0,0,1,8206.93,331.896)">
                    <rect x="4085.98" y="212.992" width="34.97" height="34.971" style="fill:rgb(255,149,0);"/>
                </g>
                <g transform="matrix(-1,0,0,1,8206.93,412.62)">
                    <rect x="4085.98" y="172.63" width="34.97" height="34.971" style="fill:rgb(255,149,0);"/>
                </g>
                <g transform="matrix(-1,0,0,1,8206.93,493.344)">
                    <rect x="4085.98" y="132.268" width="34.97" height="34.971" style="fill:rgb(255,149,0);"/>
                </g>
                <g transform="matrix(-1,0,0,1,8206.93,574.068)">
                    <rect x="4085.98" y="91.906" width="34.97" height="34.971" style="fill:rgb(255,149,0);"/>
                </g>
                <g transform="matrix(-1,0,0,1,7884.04,251.171)">
                    <rect x="3924.53" y="253.355" width="34.971" height="34.97" style="fill:rgb(255,149,0);"/>
                </g>
                <g transform="matrix(-1,0,0,1,7884.04,331.896)">
                    <rect x="3924.53" y="212.992" width="34.971" height="34.971" style="fill:rgb(255,149,0);"/>
                </g>
                <g transform="matrix(-1,0,0,1,7884.04,412.62)">
                    <rect x="3924.53" y="172.63" width="34.971" height="34.971" style="fill:rgb(255,149,0);"/>
                </g>
                <g transform="matrix(-1,0,0,1,7884.04,493.344)">
                    <rect x="3924.53" y="132.268" width="34.971" height="34.971" style="fill:rgb(255,149,0);"/>
                </g>
                <g transform="matrix(-1,0,0,1,7884.04,574.068)">
                    <rect x="3924.53" y="91.906" width="34.971" height="34.971" style="fill:rgb(255,149,0);"/>
                </g>
                <g transform="matrix(-1,0,0,1,8126.21,331.896)">
                    <rect x="4045.62" y="212.992" width="34.971" height="34.971" style="fill:rgb(255,149,0);"/>
                </g>
                <g transform="matrix(-1,0,0,1,8045.48,412.62)">
                    <rect x="4005.26" y="172.63" width="34.971" height="34.971" style="fill:rgb(255,149,0);"/>
                </g>
                <g transform="matrix(-1,0,0,1,7964.76,493.344)">
                    <rect x="3964.89" y="132.268" width="34.971" height="34.971" style="fill:rgb(255,149,0);"/>
                </g>
                <g transform="matrix(-1,0,0,1,8045.48,170.448)">
                    <rect x="4005.26" y="293.716" width="34.971" height="34.971" style="fill:rgb(255,149,0);"/>
                </g>
                <g transform="matrix(-1,0,0,1,7964.76,170.448)">
                    <rect x="3964.89" y="293.716" width="34.971" height="34.971" style="fill:rgb(255,149,0);"/>
                </g>
                <g transform="matrix(-1,0,0,1,8126.21,170.448)">
                    <rect x="4045.62" y="293.716" width="34.971" height="34.971" style="fill:rgb(255,149,0);"/>
                </g>
                <g transform="matrix(-1,0,0,1,8045.48,654.794)">
                    <rect x="4005.26" y="51.543" width="34.971" height="34.971" style="fill:rgb(255,149,0);"/>
                </g>
                <g transform="matrix(-1,0,0,1,7964.76,654.794)">
                    <rect x="3964.89" y="51.543" width="34.971" height="34.971" style="fill:rgb(255,149,0);"/>
                </g>
                <g transform="matrix(-1,0,0,1,8126.21,654.794)">
                    <rect x="4045.62" y="51.543" width="34.971" height="34.971" style="fill:rgb(255,149,0);"/>
                </g>
            </g>
        </g>
    </g>
</svg>
