<?xml version="1.0" encoding="UTF-8" standalone="no"?>
<!DOCTYPE svg PUBLIC "-//W3C//DTD SVG 1.1//EN" "http://www.w3.org/Graphics/SVG/1.1/DTD/svg11.dtd">
<svg width="100%" height="100%" viewBox="0 0 1811 278" version="1.1" xmlns="http://www.w3.org/2000/svg" xmlns:xlink="http://www.w3.org/1999/xlink" xml:space="preserve" xmlns:serif="http://www.serif.com/" style="fill-rule:evenodd;clip-rule:evenodd;stroke-linejoin:round;stroke-miterlimit:2;">
    <g transform="matrix(1,0,0,1,-1393.7,-0.001)">
        <g id="Ñëîé-1" serif:id="Ñëîé 1">
            <g>
                <g>
                    <g transform="matrix(1,0,0,1,0,-757.879)">
                        <rect x="1393.7" y="757.88" width="34.971" height="34.97" style="fill:white;"/>
                    </g>
                    <g transform="matrix(1,0,0,1,0,-757.879)">
                        <rect x="1676.24" y="757.88" width="34.97" height="34.97" style="fill:white;"/>
                    </g>
                    <g transform="matrix(-1,0,0,1,2822.37,-677.156)">
                        <rect x="1393.7" y="717.518" width="34.971" height="34.971" style="fill:white;"/>
                    </g>
                    <g transform="matrix(-1,0,0,1,3306.71,-677.156)">
                        <rect x="1635.87" y="717.518" width="34.971" height="34.971" style="fill:white;"/>
                    </g>
                    <g transform="matrix(-1,0,0,1,2822.37,-596.432)">
                        <rect x="1393.7" y="677.156" width="34.971" height="34.971" style="fill:white;"/>
                    </g>
                    <g transform="matrix(-1,0,0,1,3306.71,-596.432)">
                        <rect x="1635.87" y="677.156" width="34.971" height="34.971" style="fill:white;"/>
                    </g>
                    <g transform="matrix(-1,0,0,1,2822.37,-515.708)">
                        <rect x="1393.7" y="636.794" width="34.971" height="34.971" style="fill:white;"/>
                    </g>
                    <g transform="matrix(-1,0,0,1,3306.71,-515.708)">
                        <rect x="1635.87" y="636.794" width="34.971" height="34.971" style="fill:white;"/>
                    </g>
                    <g transform="matrix(-1,0,0,1,2822.37,-434.982)">
                        <rect x="1393.7" y="596.431" width="34.971" height="34.971" style="fill:white;"/>
                    </g>
                    <g transform="matrix(-1,0,0,1,3306.71,-434.982)">
                        <rect x="1635.87" y="596.431" width="34.971" height="34.971" style="fill:white;"/>
                    </g>
                    <g transform="matrix(-1,0,0,1,2822.37,-354.258)">
                        <rect x="1393.7" y="556.069" width="34.971" height="34.971" style="fill:white;"/>
                    </g>
                    <g transform="matrix(-1,0,0,1,3306.71,-354.258)">
                        <rect x="1635.87" y="556.069" width="34.971" height="34.971" style="fill:white;"/>
                    </g>
                    <g transform="matrix(-1,0,0,1,2822.37,-273.536)">
                        <rect x="1393.7" y="515.708" width="34.971" height="34.971" style="fill:white;"/>
                    </g>
                    <g transform="matrix(-1,0,0,1,2903.09,-273.536)">
                        <rect x="1434.06" y="515.708" width="34.971" height="34.971" style="fill:white;"/>
                    </g>
                    <g transform="matrix(-1,0,0,1,2983.82,-273.536)">
                        <rect x="1474.42" y="515.708" width="34.971" height="34.971" style="fill:white;"/>
                    </g>
                    <g transform="matrix(-1,0,0,1,3064.54,-273.536)">
                        <rect x="1514.79" y="515.708" width="34.971" height="34.971" style="fill:white;"/>
                    </g>
                    <g transform="matrix(-1,0,0,1,3145.27,-273.536)">
                        <rect x="1555.15" y="515.708" width="34.971" height="34.971" style="fill:white;"/>
                    </g>
                    <g transform="matrix(-1,0,0,1,3387.44,-273.536)">
                        <rect x="1676.23" y="515.708" width="34.971" height="34.971" style="fill:white;"/>
                    </g>
                    <g transform="matrix(1,0,0,1,0,-757.879)">
                        <rect x="1716.6" y="757.88" width="34.971" height="34.97" style="fill:white;"/>
                    </g>
                    <g transform="matrix(1,0,0,1,0,-757.879)">
                        <rect x="1756.96" y="757.88" width="34.97" height="34.97" style="fill:white;"/>
                    </g>
                    <g transform="matrix(1,0,0,1,0,-757.879)">
                        <rect x="1958.77" y="757.88" width="34.971" height="34.97" style="fill:white;"/>
                    </g>
                    <g transform="matrix(-1,0,0,1,3629.61,-677.156)">
                        <rect x="1797.32" y="717.518" width="34.971" height="34.971" style="fill:white;"/>
                    </g>
                    <g transform="matrix(-1,0,0,1,3871.78,-677.156)">
                        <rect x="1918.41" y="717.518" width="34.971" height="34.971" style="fill:white;"/>
                    </g>
                    <g transform="matrix(-1,0,0,1,4033.23,-677.156)">
                        <rect x="1999.13" y="717.518" width="34.971" height="34.971" style="fill:white;"/>
                    </g>
                    <g transform="matrix(-1,0,0,1,3629.61,-596.432)">
                        <rect x="1797.32" y="677.156" width="34.971" height="34.971" style="fill:white;"/>
                    </g>
                    <g transform="matrix(-1,0,0,1,3791.06,-596.432)">
                        <rect x="1878.05" y="677.156" width="34.971" height="34.971" style="fill:white;"/>
                    </g>
                    <g transform="matrix(-1,0,0,1,3629.61,-515.708)">
                        <rect x="1797.32" y="636.794" width="34.971" height="34.971" style="fill:white;"/>
                    </g>
                    <g transform="matrix(-1,0,0,1,3791.06,-515.708)">
                        <rect x="1878.05" y="636.794" width="34.971" height="34.971" style="fill:white;"/>
                    </g>
                    <g transform="matrix(-1,0,0,1,3629.61,-434.982)">
                        <rect x="1797.32" y="596.431" width="34.971" height="34.971" style="fill:white;"/>
                    </g>
                    <g transform="matrix(-1,0,0,1,3791.06,-434.982)">
                        <rect x="1878.05" y="596.431" width="34.971" height="34.971" style="fill:white;"/>
                    </g>
                    <g transform="matrix(-1,0,0,1,3871.78,-434.982)">
                        <rect x="1918.41" y="596.431" width="34.971" height="34.971" style="fill:white;"/>
                    </g>
                    <g transform="matrix(-1,0,0,1,3952.51,-434.982)">
                        <rect x="1958.77" y="596.431" width="34.971" height="34.971" style="fill:white;"/>
                    </g>
                    <g transform="matrix(-1,0,0,1,4033.23,-434.982)">
                        <rect x="1999.13" y="596.431" width="34.971" height="34.971" style="fill:white;"/>
                    </g>
                    <g transform="matrix(-1,0,0,1,3629.61,-354.258)">
                        <rect x="1797.32" y="556.069" width="34.971" height="34.971" style="fill:white;"/>
                    </g>
                    <g transform="matrix(-1,0,0,1,3791.06,-354.258)">
                        <rect x="1878.05" y="556.069" width="34.971" height="34.971" style="fill:white;"/>
                    </g>
                    <g transform="matrix(-1,0,0,1,3468.16,-273.536)">
                        <rect x="1716.6" y="515.708" width="34.971" height="34.971" style="fill:white;"/>
                    </g>
                    <g transform="matrix(-1,0,0,1,3548.89,-273.536)">
                        <rect x="1756.96" y="515.708" width="34.971" height="34.971" style="fill:white;"/>
                    </g>
                    <g transform="matrix(-1,0,0,1,3791.06,-273.536)">
                        <rect x="1878.05" y="515.708" width="34.971" height="34.971" style="fill:white;"/>
                    </g>
                    <g transform="matrix(1,0,0,1,0,-757.879)">
                        <rect x="2120.22" y="757.88" width="34.97" height="34.97" style="fill:white;"/>
                    </g>
                    <g transform="matrix(1,0,0,1,0,-757.879)">
                        <rect x="2160.58" y="757.88" width="34.97" height="34.97" style="fill:white;"/>
                    </g>
                    <g transform="matrix(1,0,0,1,0,-757.879)">
                        <rect x="2200.94" y="757.88" width="34.971" height="34.97" style="fill:white;"/>
                    </g>
                    <g transform="matrix(1,0,0,1,0,-757.879)">
                        <rect x="2241.3" y="757.88" width="34.97" height="34.97" style="fill:white;"/>
                    </g>
                    <g transform="matrix(-1,0,0,1,4356.13,-677.156)">
                        <rect x="2160.58" y="717.518" width="34.971" height="34.971" style="fill:white;"/>
                    </g>
                    <g transform="matrix(-1,0,0,1,4598.3,-677.156)">
                        <rect x="2281.67" y="717.518" width="34.971" height="34.971" style="fill:white;"/>
                    </g>
                    <g transform="matrix(-1,0,0,1,4113.96,-596.432)">
                        <rect x="2039.49" y="677.156" width="34.971" height="34.971" style="fill:white;"/>
                    </g>
                    <g transform="matrix(-1,0,0,1,4356.13,-596.432)">
                        <rect x="2160.58" y="677.156" width="34.971" height="34.971" style="fill:white;"/>
                    </g>
                    <g transform="matrix(-1,0,0,1,4598.3,-596.432)">
                        <rect x="2281.67" y="677.156" width="34.971" height="34.971" style="fill:white;"/>
                    </g>
                    <g transform="matrix(-1,0,0,1,4113.96,-515.708)">
                        <rect x="2039.49" y="636.794" width="34.971" height="34.971" style="fill:white;"/>
                    </g>
                    <g transform="matrix(-1,0,0,1,4356.13,-515.708)">
                        <rect x="2160.58" y="636.794" width="34.971" height="34.971" style="fill:white;"/>
                    </g>
                    <g transform="matrix(-1,0,0,1,4598.3,-515.708)">
                        <rect x="2281.67" y="636.794" width="34.971" height="34.971" style="fill:white;"/>
                    </g>
                    <g transform="matrix(-1,0,0,1,4113.96,-434.982)">
                        <rect x="2039.49" y="596.431" width="34.971" height="34.971" style="fill:white;"/>
                    </g>
                    <g transform="matrix(-1,0,0,1,4356.13,-434.982)">
                        <rect x="2160.58" y="596.431" width="34.971" height="34.971" style="fill:white;"/>
                    </g>
                    <g transform="matrix(-1,0,0,1,4598.3,-434.982)">
                        <rect x="2281.67" y="596.431" width="34.971" height="34.971" style="fill:white;"/>
                    </g>
                    <g transform="matrix(-1,0,0,1,4113.96,-354.258)">
                        <rect x="2039.49" y="556.069" width="34.971" height="34.971" style="fill:white;"/>
                    </g>
                    <g transform="matrix(-1,0,0,1,4356.13,-354.258)">
                        <rect x="2160.58" y="556.069" width="34.971" height="34.971" style="fill:white;"/>
                    </g>
                    <g transform="matrix(-1,0,0,1,4598.3,-354.258)">
                        <rect x="2281.67" y="556.069" width="34.971" height="34.971" style="fill:white;"/>
                    </g>
                    <g transform="matrix(-1,0,0,1,4113.96,-273.536)">
                        <rect x="2039.49" y="515.708" width="34.971" height="34.971" style="fill:white;"/>
                    </g>
                    <g transform="matrix(-1,0,0,1,4275.41,-273.536)">
                        <rect x="2120.22" y="515.708" width="34.971" height="34.971" style="fill:white;"/>
                    </g>
                    <g transform="matrix(-1,0,0,1,4356.13,-273.536)">
                        <rect x="2160.58" y="515.708" width="34.971" height="34.971" style="fill:white;"/>
                    </g>
                    <g transform="matrix(-1,0,0,1,4436.86,-273.536)">
                        <rect x="2200.94" y="515.708" width="34.971" height="34.971" style="fill:white;"/>
                    </g>
                    <g transform="matrix(-1,0,0,1,4517.58,-273.536)">
                        <rect x="2241.3" y="515.708" width="34.971" height="34.971" style="fill:white;"/>
                    </g>
                    <g transform="matrix(1,0,0,1,0,-757.879)">
                        <rect x="2362.39" y="757.88" width="34.971" height="34.97" style="fill:white;"/>
                    </g>
                    <g transform="matrix(1,0,0,1,0,-757.879)">
                        <rect x="2402.75" y="757.88" width="34.971" height="34.97" style="fill:white;"/>
                    </g>
                    <g transform="matrix(1,0,0,1,0,-757.879)">
                        <rect x="2443.11" y="757.88" width="34.971" height="34.97" style="fill:white;"/>
                    </g>
                    <g transform="matrix(1,0,0,1,0,-757.879)">
                        <rect x="2523.84" y="757.88" width="34.97" height="34.97" style="fill:white;"/>
                    </g>
                    <g transform="matrix(-1,0,0,1,4840.48,-677.156)">
                        <rect x="2402.75" y="717.518" width="34.972" height="34.971" style="fill:white;"/>
                    </g>
                    <g transform="matrix(-1,0,0,1,5082.65,-677.156)">
                        <rect x="2523.84" y="717.518" width="34.971" height="34.971" style="fill:white;"/>
                    </g>
                    <g transform="matrix(-1,0,0,1,4840.48,-596.432)">
                        <rect x="2402.75" y="677.156" width="34.972" height="34.971" style="fill:white;"/>
                    </g>
                    <g transform="matrix(-1,0,0,1,5082.65,-596.432)">
                        <rect x="2523.84" y="677.156" width="34.971" height="34.971" style="fill:white;"/>
                    </g>
                    <g transform="matrix(-1,0,0,1,5163.37,-596.432)">
                        <rect x="2564.2" y="677.156" width="34.971" height="34.971" style="fill:white;"/>
                    </g>
                    <g transform="matrix(-1,0,0,1,4840.48,-515.708)">
                        <rect x="2402.75" y="636.794" width="34.972" height="34.971" style="fill:white;"/>
                    </g>
                    <g transform="matrix(-1,0,0,1,5082.65,-515.708)">
                        <rect x="2523.84" y="636.794" width="34.971" height="34.971" style="fill:white;"/>
                    </g>
                    <g transform="matrix(-1,0,0,1,5244.1,-515.708)">
                        <rect x="2604.56" y="636.794" width="34.971" height="34.971" style="fill:white;"/>
                    </g>
                    <g transform="matrix(-1,0,0,1,4840.48,-434.982)">
                        <rect x="2402.75" y="596.431" width="34.972" height="34.971" style="fill:white;"/>
                    </g>
                    <g transform="matrix(-1,0,0,1,5082.65,-434.982)">
                        <rect x="2523.84" y="596.431" width="34.971" height="34.971" style="fill:white;"/>
                    </g>
                    <g transform="matrix(-1,0,0,1,5324.82,-434.982)">
                        <rect x="2644.93" y="596.431" width="34.971" height="34.971" style="fill:white;"/>
                    </g>
                    <g transform="matrix(-1,0,0,1,4840.48,-354.258)">
                        <rect x="2402.75" y="556.069" width="34.972" height="34.971" style="fill:white;"/>
                    </g>
                    <g transform="matrix(-1,0,0,1,5082.65,-354.258)">
                        <rect x="2523.84" y="556.069" width="34.971" height="34.971" style="fill:white;"/>
                    </g>
                    <g transform="matrix(-1,0,0,1,4759.75,-273.536)">
                        <rect x="2362.39" y="515.708" width="34.971" height="34.971" style="fill:white;"/>
                    </g>
                    <g transform="matrix(-1,0,0,1,4840.48,-273.536)">
                        <rect x="2402.75" y="515.708" width="34.972" height="34.971" style="fill:white;"/>
                    </g>
                    <g transform="matrix(-1,0,0,1,4921.2,-273.536)">
                        <rect x="2443.11" y="515.708" width="34.971" height="34.971" style="fill:white;"/>
                    </g>
                    <g transform="matrix(-1,0,0,1,5082.65,-273.536)">
                        <rect x="2523.84" y="515.708" width="34.971" height="34.971" style="fill:white;"/>
                    </g>
                    <g transform="matrix(1,0,0,1,0,-757.879)">
                        <rect x="2685.29" y="757.88" width="34.971" height="34.97" style="fill:white;"/>
                    </g>
                    <g transform="matrix(1,0,0,1,0,-757.879)">
                        <rect x="2806.37" y="757.88" width="34.97" height="34.97" style="fill:white;"/>
                    </g>
                    <g transform="matrix(-1,0,0,1,5405.55,-677.156)">
                        <rect x="2685.29" y="717.518" width="34.971" height="34.971" style="fill:white;"/>
                    </g>
                    <g transform="matrix(-1,0,0,1,5567,-677.156)">
                        <rect x="2766.01" y="717.518" width="34.971" height="34.971" style="fill:white;"/>
                    </g>
                    <g transform="matrix(-1,0,0,1,5405.55,-596.432)">
                        <rect x="2685.29" y="677.156" width="34.971" height="34.971" style="fill:white;"/>
                    </g>
                    <g transform="matrix(-1,0,0,1,5567,-596.432)">
                        <rect x="2766.01" y="677.156" width="34.971" height="34.971" style="fill:white;"/>
                    </g>
                    <g transform="matrix(-1,0,0,1,5405.55,-515.708)">
                        <rect x="2685.29" y="636.794" width="34.971" height="34.971" style="fill:white;"/>
                    </g>
                    <g transform="matrix(-1,0,0,1,5567,-515.708)">
                        <rect x="2766.01" y="636.794" width="34.971" height="34.971" style="fill:white;"/>
                    </g>
                    <g transform="matrix(-1,0,0,1,5405.55,-434.982)">
                        <rect x="2685.29" y="596.431" width="34.971" height="34.971" style="fill:white;"/>
                    </g>
                    <g transform="matrix(-1,0,0,1,5567,-434.982)">
                        <rect x="2766.01" y="596.431" width="34.971" height="34.971" style="fill:white;"/>
                    </g>
                    <g transform="matrix(-1,0,0,1,5405.55,-354.258)">
                        <rect x="2685.29" y="556.069" width="34.971" height="34.971" style="fill:white;"/>
                    </g>
                    <g transform="matrix(-1,0,0,1,5567,-354.258)">
                        <rect x="2766.01" y="556.069" width="34.971" height="34.971" style="fill:white;"/>
                    </g>
                    <g transform="matrix(-1,0,0,1,5405.55,-273.536)">
                        <rect x="2685.29" y="515.708" width="34.971" height="34.971" style="fill:white;"/>
                    </g>
                    <g transform="matrix(-1,0,0,1,5647.72,-273.536)">
                        <rect x="2806.37" y="515.708" width="34.971" height="34.971" style="fill:white;"/>
                    </g>
                    <g transform="matrix(1,0,0,1,0,-757.879)">
                        <rect x="2846.74" y="757.88" width="34.97" height="34.97" style="fill:white;"/>
                    </g>
                    <g transform="matrix(1,0,0,1,0,-757.879)">
                        <rect x="2887.1" y="757.88" width="34.971" height="34.97" style="fill:white;"/>
                    </g>
                    <g transform="matrix(1,0,0,1,0,-757.879)">
                        <rect x="2927.46" y="757.88" width="34.97" height="34.97" style="fill:white;"/>
                    </g>
                    <g transform="matrix(-1,0,0,1,5728.44,-515.708)">
                        <rect x="2846.74" y="636.794" width="34.971" height="34.971" style="fill:white;"/>
                    </g>
                    <g transform="matrix(-1,0,0,1,5809.17,-515.708)">
                        <rect x="2887.1" y="636.794" width="34.971" height="34.971" style="fill:white;"/>
                    </g>
                    <g transform="matrix(-1,0,0,1,5889.89,-515.708)">
                        <rect x="2927.46" y="636.794" width="34.971" height="34.971" style="fill:white;"/>
                    </g>
                    <g transform="matrix(-1,0,0,1,5889.89,-434.982)">
                        <rect x="2927.46" y="596.431" width="34.971" height="34.971" style="fill:white;"/>
                    </g>
                    <g transform="matrix(-1,0,0,1,5889.89,-354.258)">
                        <rect x="2927.46" y="556.069" width="34.971" height="34.971" style="fill:white;"/>
                    </g>
                    <g transform="matrix(-1,0,0,1,5728.44,-273.536)">
                        <rect x="2846.74" y="515.708" width="34.971" height="34.971" style="fill:white;"/>
                    </g>
                    <g transform="matrix(-1,0,0,1,5809.17,-273.536)">
                        <rect x="2887.1" y="515.708" width="34.971" height="34.971" style="fill:white;"/>
                    </g>
                    <g transform="matrix(-1,0,0,1,5889.89,-273.536)">
                        <rect x="2927.46" y="515.708" width="34.971" height="34.971" style="fill:white;"/>
                    </g>
                    <g transform="matrix(-1,0,0,1,6051.34,-273.536)">
                        <rect x="3008.18" y="515.708" width="34.971" height="34.971" style="fill:white;"/>
                    </g>
                    <g transform="matrix(-1,0,0,1,6212.79,-273.536)">
                        <rect x="3088.91" y="515.708" width="34.971" height="34.971" style="fill:white;"/>
                    </g>
                    <g transform="matrix(-1,0,0,1,6374.24,-273.536)">
                        <rect x="3169.63" y="515.708" width="34.971" height="34.971" style="fill:white;"/>
                    </g>
                    <g transform="matrix(1,0,0,1,0,-757.879)">
                        <rect x="1393.7" y="757.88" width="34.971" height="34.97" style="fill:white;"/>
                    </g>
                    <g transform="matrix(1,0,0,1,0,-757.879)">
                        <rect x="1676.24" y="757.88" width="34.97" height="34.97" style="fill:white;"/>
                    </g>
                    <g transform="matrix(-1,0,0,1,2822.37,-677.156)">
                        <rect x="1393.7" y="717.518" width="34.971" height="34.971" style="fill:white;"/>
                    </g>
                    <g transform="matrix(-1,0,0,1,3306.71,-677.156)">
                        <rect x="1635.87" y="717.518" width="34.971" height="34.971" style="fill:white;"/>
                    </g>
                    <g transform="matrix(-1,0,0,1,2822.37,-596.432)">
                        <rect x="1393.7" y="677.156" width="34.971" height="34.971" style="fill:white;"/>
                    </g>
                    <g transform="matrix(-1,0,0,1,3306.71,-596.432)">
                        <rect x="1635.87" y="677.156" width="34.971" height="34.971" style="fill:white;"/>
                    </g>
                    <g transform="matrix(-1,0,0,1,2822.37,-515.708)">
                        <rect x="1393.7" y="636.794" width="34.971" height="34.971" style="fill:white;"/>
                    </g>
                    <g transform="matrix(-1,0,0,1,3306.71,-515.708)">
                        <rect x="1635.87" y="636.794" width="34.971" height="34.971" style="fill:white;"/>
                    </g>
                    <g transform="matrix(-1,0,0,1,2822.37,-434.982)">
                        <rect x="1393.7" y="596.431" width="34.971" height="34.971" style="fill:white;"/>
                    </g>
                    <g transform="matrix(-1,0,0,1,3306.71,-434.982)">
                        <rect x="1635.87" y="596.431" width="34.971" height="34.971" style="fill:white;"/>
                    </g>
                    <g transform="matrix(-1,0,0,1,2822.37,-354.258)">
                        <rect x="1393.7" y="556.069" width="34.971" height="34.971" style="fill:white;"/>
                    </g>
                    <g transform="matrix(-1,0,0,1,3306.71,-354.258)">
                        <rect x="1635.87" y="556.069" width="34.971" height="34.971" style="fill:white;"/>
                    </g>
                    <g transform="matrix(-1,0,0,1,2822.37,-273.536)">
                        <rect x="1393.7" y="515.708" width="34.971" height="34.971" style="fill:white;"/>
                    </g>
                    <g transform="matrix(-1,0,0,1,2903.09,-273.536)">
                        <rect x="1434.06" y="515.708" width="34.971" height="34.971" style="fill:white;"/>
                    </g>
                    <g transform="matrix(-1,0,0,1,2983.82,-273.536)">
                        <rect x="1474.42" y="515.708" width="34.971" height="34.971" style="fill:white;"/>
                    </g>
                    <g transform="matrix(-1,0,0,1,3064.54,-273.536)">
                        <rect x="1514.79" y="515.708" width="34.971" height="34.971" style="fill:white;"/>
                    </g>
                    <g transform="matrix(-1,0,0,1,3145.27,-273.536)">
                        <rect x="1555.15" y="515.708" width="34.971" height="34.971" style="fill:white;"/>
                    </g>
                    <g transform="matrix(-1,0,0,1,3387.44,-273.536)">
                        <rect x="1676.23" y="515.708" width="34.971" height="34.971" style="fill:white;"/>
                    </g>
                    <g transform="matrix(1,0,0,1,0,-757.879)">
                        <rect x="1716.6" y="757.88" width="34.971" height="34.97" style="fill:white;"/>
                    </g>
                    <g transform="matrix(1,0,0,1,0,-757.879)">
                        <rect x="1756.96" y="757.88" width="34.97" height="34.97" style="fill:white;"/>
                    </g>
                    <g transform="matrix(1,0,0,1,0,-757.879)">
                        <rect x="1958.77" y="757.88" width="34.971" height="34.97" style="fill:white;"/>
                    </g>
                    <g transform="matrix(-1,0,0,1,3629.61,-677.156)">
                        <rect x="1797.32" y="717.518" width="34.971" height="34.971" style="fill:white;"/>
                    </g>
                    <g transform="matrix(-1,0,0,1,3871.78,-677.156)">
                        <rect x="1918.41" y="717.518" width="34.971" height="34.971" style="fill:white;"/>
                    </g>
                    <g transform="matrix(-1,0,0,1,4033.23,-677.156)">
                        <rect x="1999.13" y="717.518" width="34.971" height="34.971" style="fill:white;"/>
                    </g>
                    <g transform="matrix(-1,0,0,1,3629.61,-596.432)">
                        <rect x="1797.32" y="677.156" width="34.971" height="34.971" style="fill:white;"/>
                    </g>
                    <g transform="matrix(-1,0,0,1,3791.06,-596.432)">
                        <rect x="1878.05" y="677.156" width="34.971" height="34.971" style="fill:white;"/>
                    </g>
                    <g transform="matrix(-1,0,0,1,3629.61,-515.708)">
                        <rect x="1797.32" y="636.794" width="34.971" height="34.971" style="fill:white;"/>
                    </g>
                    <g transform="matrix(-1,0,0,1,3791.06,-515.708)">
                        <rect x="1878.05" y="636.794" width="34.971" height="34.971" style="fill:white;"/>
                    </g>
                    <g transform="matrix(-1,0,0,1,3629.61,-434.982)">
                        <rect x="1797.32" y="596.431" width="34.971" height="34.971" style="fill:white;"/>
                    </g>
                    <g transform="matrix(-1,0,0,1,3791.06,-434.982)">
                        <rect x="1878.05" y="596.431" width="34.971" height="34.971" style="fill:white;"/>
                    </g>
                    <g transform="matrix(-1,0,0,1,3871.78,-434.982)">
                        <rect x="1918.41" y="596.431" width="34.971" height="34.971" style="fill:white;"/>
                    </g>
                    <g transform="matrix(-1,0,0,1,3952.51,-434.982)">
                        <rect x="1958.77" y="596.431" width="34.971" height="34.971" style="fill:white;"/>
                    </g>
                    <g transform="matrix(-1,0,0,1,4033.23,-434.982)">
                        <rect x="1999.13" y="596.431" width="34.971" height="34.971" style="fill:white;"/>
                    </g>
                    <g transform="matrix(-1,0,0,1,3629.61,-354.258)">
                        <rect x="1797.32" y="556.069" width="34.971" height="34.971" style="fill:white;"/>
                    </g>
                    <g transform="matrix(-1,0,0,1,3791.06,-354.258)">
                        <rect x="1878.05" y="556.069" width="34.971" height="34.971" style="fill:white;"/>
                    </g>
                    <g transform="matrix(-1,0,0,1,3468.16,-273.536)">
                        <rect x="1716.6" y="515.708" width="34.971" height="34.971" style="fill:white;"/>
                    </g>
                    <g transform="matrix(-1,0,0,1,3548.89,-273.536)">
                        <rect x="1756.96" y="515.708" width="34.971" height="34.971" style="fill:white;"/>
                    </g>
                    <g transform="matrix(-1,0,0,1,3791.06,-273.536)">
                        <rect x="1878.05" y="515.708" width="34.971" height="34.971" style="fill:white;"/>
                    </g>
                    <g transform="matrix(1,0,0,1,0,-757.879)">
                        <rect x="2120.22" y="757.88" width="34.97" height="34.97" style="fill:white;"/>
                    </g>
                    <g transform="matrix(1,0,0,1,0,-757.879)">
                        <rect x="2160.58" y="757.88" width="34.97" height="34.97" style="fill:white;"/>
                    </g>
                    <g transform="matrix(1,0,0,1,0,-757.879)">
                        <rect x="2200.94" y="757.88" width="34.971" height="34.97" style="fill:white;"/>
                    </g>
                    <g transform="matrix(1,0,0,1,0,-757.879)">
                        <rect x="2241.3" y="757.88" width="34.97" height="34.97" style="fill:white;"/>
                    </g>
                    <g transform="matrix(-1,0,0,1,4356.13,-677.156)">
                        <rect x="2160.58" y="717.518" width="34.971" height="34.971" style="fill:white;"/>
                    </g>
                    <g transform="matrix(-1,0,0,1,4598.3,-677.156)">
                        <rect x="2281.67" y="717.518" width="34.971" height="34.971" style="fill:white;"/>
                    </g>
                    <g transform="matrix(-1,0,0,1,4113.96,-596.432)">
                        <rect x="2039.49" y="677.156" width="34.971" height="34.971" style="fill:white;"/>
                    </g>
                    <g transform="matrix(-1,0,0,1,4356.13,-596.432)">
                        <rect x="2160.58" y="677.156" width="34.971" height="34.971" style="fill:white;"/>
                    </g>
                    <g transform="matrix(-1,0,0,1,4598.3,-596.432)">
                        <rect x="2281.67" y="677.156" width="34.971" height="34.971" style="fill:white;"/>
                    </g>
                    <g transform="matrix(-1,0,0,1,4113.96,-515.708)">
                        <rect x="2039.49" y="636.794" width="34.971" height="34.971" style="fill:white;"/>
                    </g>
                    <g transform="matrix(-1,0,0,1,4356.13,-515.708)">
                        <rect x="2160.58" y="636.794" width="34.971" height="34.971" style="fill:white;"/>
                    </g>
                    <g transform="matrix(-1,0,0,1,4598.3,-515.708)">
                        <rect x="2281.67" y="636.794" width="34.971" height="34.971" style="fill:white;"/>
                    </g>
                    <g transform="matrix(-1,0,0,1,4113.96,-434.982)">
                        <rect x="2039.49" y="596.431" width="34.971" height="34.971" style="fill:white;"/>
                    </g>
                    <g transform="matrix(-1,0,0,1,4356.13,-434.982)">
                        <rect x="2160.58" y="596.431" width="34.971" height="34.971" style="fill:white;"/>
                    </g>
                    <g transform="matrix(-1,0,0,1,4598.3,-434.982)">
                        <rect x="2281.67" y="596.431" width="34.971" height="34.971" style="fill:white;"/>
                    </g>
                    <g transform="matrix(-1,0,0,1,4113.96,-354.258)">
                        <rect x="2039.49" y="556.069" width="34.971" height="34.971" style="fill:white;"/>
                    </g>
                    <g transform="matrix(-1,0,0,1,4356.13,-354.258)">
                        <rect x="2160.58" y="556.069" width="34.971" height="34.971" style="fill:white;"/>
                    </g>
                    <g transform="matrix(-1,0,0,1,4598.3,-354.258)">
                        <rect x="2281.67" y="556.069" width="34.971" height="34.971" style="fill:white;"/>
                    </g>
                    <g transform="matrix(-1,0,0,1,4113.96,-273.536)">
                        <rect x="2039.49" y="515.708" width="34.971" height="34.971" style="fill:white;"/>
                    </g>
                    <g transform="matrix(-1,0,0,1,4275.41,-273.536)">
                        <rect x="2120.22" y="515.708" width="34.971" height="34.971" style="fill:white;"/>
                    </g>
                    <g transform="matrix(-1,0,0,1,4356.13,-273.536)">
                        <rect x="2160.58" y="515.708" width="34.971" height="34.971" style="fill:white;"/>
                    </g>
                    <g transform="matrix(-1,0,0,1,4436.86,-273.536)">
                        <rect x="2200.94" y="515.708" width="34.971" height="34.971" style="fill:white;"/>
                    </g>
                    <g transform="matrix(-1,0,0,1,4517.58,-273.536)">
                        <rect x="2241.3" y="515.708" width="34.971" height="34.971" style="fill:white;"/>
                    </g>
                    <g transform="matrix(1,0,0,1,0,-757.879)">
                        <rect x="2362.39" y="757.88" width="34.971" height="34.97" style="fill:white;"/>
                    </g>
                    <g transform="matrix(1,0,0,1,0,-757.879)">
                        <rect x="2402.75" y="757.88" width="34.971" height="34.97" style="fill:white;"/>
                    </g>
                    <g transform="matrix(1,0,0,1,0,-757.879)">
                        <rect x="2443.11" y="757.88" width="34.971" height="34.97" style="fill:white;"/>
                    </g>
                    <g transform="matrix(1,0,0,1,0,-757.879)">
                        <rect x="2523.84" y="757.88" width="34.97" height="34.97" style="fill:white;"/>
                    </g>
                    <g transform="matrix(-1,0,0,1,4840.48,-677.156)">
                        <rect x="2402.75" y="717.518" width="34.972" height="34.971" style="fill:white;"/>
                    </g>
                    <g transform="matrix(-1,0,0,1,5082.65,-677.156)">
                        <rect x="2523.84" y="717.518" width="34.971" height="34.971" style="fill:white;"/>
                    </g>
                    <g transform="matrix(-1,0,0,1,4840.48,-596.432)">
                        <rect x="2402.75" y="677.156" width="34.972" height="34.971" style="fill:white;"/>
                    </g>
                    <g transform="matrix(-1,0,0,1,5082.65,-596.432)">
                        <rect x="2523.84" y="677.156" width="34.971" height="34.971" style="fill:white;"/>
                    </g>
                    <g transform="matrix(-1,0,0,1,5163.37,-596.432)">
                        <rect x="2564.2" y="677.156" width="34.971" height="34.971" style="fill:white;"/>
                    </g>
                    <g transform="matrix(-1,0,0,1,4840.48,-515.708)">
                        <rect x="2402.75" y="636.794" width="34.972" height="34.971" style="fill:white;"/>
                    </g>
                    <g transform="matrix(-1,0,0,1,5082.65,-515.708)">
                        <rect x="2523.84" y="636.794" width="34.971" height="34.971" style="fill:white;"/>
                    </g>
                    <g transform="matrix(-1,0,0,1,5244.1,-515.708)">
                        <rect x="2604.56" y="636.794" width="34.971" height="34.971" style="fill:white;"/>
                    </g>
                    <g transform="matrix(-1,0,0,1,4840.48,-434.982)">
                        <rect x="2402.75" y="596.431" width="34.972" height="34.971" style="fill:white;"/>
                    </g>
                    <g transform="matrix(-1,0,0,1,5082.65,-434.982)">
                        <rect x="2523.84" y="596.431" width="34.971" height="34.971" style="fill:white;"/>
                    </g>
                    <g transform="matrix(-1,0,0,1,5324.82,-434.982)">
                        <rect x="2644.93" y="596.431" width="34.971" height="34.971" style="fill:white;"/>
                    </g>
                    <g transform="matrix(-1,0,0,1,4840.48,-354.258)">
                        <rect x="2402.75" y="556.069" width="34.972" height="34.971" style="fill:white;"/>
                    </g>
                    <g transform="matrix(-1,0,0,1,5082.65,-354.258)">
                        <rect x="2523.84" y="556.069" width="34.971" height="34.971" style="fill:white;"/>
                    </g>
                    <g transform="matrix(-1,0,0,1,4759.75,-273.536)">
                        <rect x="2362.39" y="515.708" width="34.971" height="34.971" style="fill:white;"/>
                    </g>
                    <g transform="matrix(-1,0,0,1,4840.48,-273.536)">
                        <rect x="2402.75" y="515.708" width="34.972" height="34.971" style="fill:white;"/>
                    </g>
                    <g transform="matrix(-1,0,0,1,4921.2,-273.536)">
                        <rect x="2443.11" y="515.708" width="34.971" height="34.971" style="fill:white;"/>
                    </g>
                    <g transform="matrix(-1,0,0,1,5082.65,-273.536)">
                        <rect x="2523.84" y="515.708" width="34.971" height="34.971" style="fill:white;"/>
                    </g>
                    <g transform="matrix(1,0,0,1,0,-757.879)">
                        <rect x="2685.29" y="757.88" width="34.971" height="34.97" style="fill:white;"/>
                    </g>
                    <g transform="matrix(1,0,0,1,0,-757.879)">
                        <rect x="2806.37" y="757.88" width="34.97" height="34.97" style="fill:white;"/>
                    </g>
                    <g transform="matrix(-1,0,0,1,5405.55,-677.156)">
                        <rect x="2685.29" y="717.518" width="34.971" height="34.971" style="fill:white;"/>
                    </g>
                    <g transform="matrix(-1,0,0,1,5567,-677.156)">
                        <rect x="2766.01" y="717.518" width="34.971" height="34.971" style="fill:white;"/>
                    </g>
                    <g transform="matrix(-1,0,0,1,5405.55,-596.432)">
                        <rect x="2685.29" y="677.156" width="34.971" height="34.971" style="fill:white;"/>
                    </g>
                    <g transform="matrix(-1,0,0,1,5567,-596.432)">
                        <rect x="2766.01" y="677.156" width="34.971" height="34.971" style="fill:white;"/>
                    </g>
                    <g transform="matrix(-1,0,0,1,5405.55,-515.708)">
                        <rect x="2685.29" y="636.794" width="34.971" height="34.971" style="fill:white;"/>
                    </g>
                    <g transform="matrix(-1,0,0,1,5567,-515.708)">
                        <rect x="2766.01" y="636.794" width="34.971" height="34.971" style="fill:white;"/>
                    </g>
                    <g transform="matrix(-1,0,0,1,5405.55,-434.982)">
                        <rect x="2685.29" y="596.431" width="34.971" height="34.971" style="fill:white;"/>
                    </g>
                    <g transform="matrix(-1,0,0,1,5567,-434.982)">
                        <rect x="2766.01" y="596.431" width="34.971" height="34.971" style="fill:white;"/>
                    </g>
                    <g transform="matrix(-1,0,0,1,5405.55,-354.258)">
                        <rect x="2685.29" y="556.069" width="34.971" height="34.971" style="fill:white;"/>
                    </g>
                    <g transform="matrix(-1,0,0,1,5567,-354.258)">
                        <rect x="2766.01" y="556.069" width="34.971" height="34.971" style="fill:white;"/>
                    </g>
                    <g transform="matrix(-1,0,0,1,5405.55,-273.536)">
                        <rect x="2685.29" y="515.708" width="34.971" height="34.971" style="fill:white;"/>
                    </g>
                    <g transform="matrix(-1,0,0,1,5647.72,-273.536)">
                        <rect x="2806.37" y="515.708" width="34.971" height="34.971" style="fill:white;"/>
                    </g>
                    <g transform="matrix(1,0,0,1,0,-757.879)">
                        <rect x="2846.74" y="757.88" width="34.97" height="34.97" style="fill:white;"/>
                    </g>
                    <g transform="matrix(1,0,0,1,0,-757.879)">
                        <rect x="2887.1" y="757.88" width="34.971" height="34.97" style="fill:white;"/>
                    </g>
                    <g transform="matrix(1,0,0,1,0,-757.879)">
                        <rect x="2927.46" y="757.88" width="34.97" height="34.97" style="fill:white;"/>
                    </g>
                    <g transform="matrix(-1,0,0,1,5728.44,-515.708)">
                        <rect x="2846.74" y="636.794" width="34.971" height="34.971" style="fill:white;"/>
                    </g>
                    <g transform="matrix(-1,0,0,1,5809.17,-515.708)">
                        <rect x="2887.1" y="636.794" width="34.971" height="34.971" style="fill:white;"/>
                    </g>
                    <g transform="matrix(-1,0,0,1,5889.89,-515.708)">
                        <rect x="2927.46" y="636.794" width="34.971" height="34.971" style="fill:white;"/>
                    </g>
                    <g transform="matrix(-1,0,0,1,5889.89,-434.982)">
                        <rect x="2927.46" y="596.431" width="34.971" height="34.971" style="fill:white;"/>
                    </g>
                    <g transform="matrix(-1,0,0,1,5889.89,-354.258)">
                        <rect x="2927.46" y="556.069" width="34.971" height="34.971" style="fill:white;"/>
                    </g>
                    <g transform="matrix(-1,0,0,1,5728.44,-273.536)">
                        <rect x="2846.74" y="515.708" width="34.971" height="34.971" style="fill:white;"/>
                    </g>
                    <g transform="matrix(-1,0,0,1,5809.17,-273.536)">
                        <rect x="2887.1" y="515.708" width="34.971" height="34.971" style="fill:white;"/>
                    </g>
                    <g transform="matrix(-1,0,0,1,5889.89,-273.536)">
                        <rect x="2927.46" y="515.708" width="34.971" height="34.971" style="fill:white;"/>
                    </g>
                    <g transform="matrix(-1,0,0,1,6051.34,-273.536)">
                        <rect x="3008.18" y="515.708" width="34.971" height="34.971" style="fill:white;"/>
                    </g>
                    <g transform="matrix(-1,0,0,1,6212.79,-273.536)">
                        <rect x="3088.91" y="515.708" width="34.971" height="34.971" style="fill:white;"/>
                    </g>
                    <g transform="matrix(-1,0,0,1,6374.24,-273.536)">
                        <rect x="3169.63" y="515.708" width="34.971" height="34.971" style="fill:white;"/>
                    </g>
                </g>
            </g>
        </g>
    </g>
</svg>
